<svg width="21" height="20" viewBox="0 0 21 20" fill="none" xmlns="http://www.w3.org/2000/svg">
<path d="M8.34753 11.9811L14.6973 5.78863C14.8946 5.59621 15.1457 5.5 15.4507 5.5C15.7556 5.5 16.0067 5.59621 16.204 5.78863C16.4013 5.98105 16.5 6.22595 16.5 6.52332C16.5 6.8207 16.4013 7.0656 16.204 7.25802L9.1009 14.1851C8.88565 14.395 8.63453 14.5 8.34753 14.5C8.06054 14.5 7.80942 14.395 7.59417 14.1851L4.79596 11.4563C4.59865 11.2638 4.5 11.019 4.5 10.7216C4.5 10.4242 4.59865 10.1793 4.79596 9.98688C4.99327 9.79446 5.24439 9.69825 5.54933 9.69825C5.85426 9.69825 6.10538 9.79446 6.30269 9.98688L8.34753 11.9811Z" fill="#0D9D59"/>
</svg>
