<svg width="24" height="24" viewBox="0 0 24 24" fill="none" xmlns="http://www.w3.org/2000/svg">
<g id="Arrows">
<path id="Vector" d="M8.54487 18.8944L15.4392 12.0001L8.54487 5.10577C8.50825 5.06916 8.47622 5.0297 8.44876 4.98811C8.38491 4.89141 8.34581 4.78318 8.33145 4.67235C8.32728 4.64019 8.3252 4.60781 8.3252 4.57544C8.3252 4.40646 8.38194 4.23749 8.49544 4.09955C8.51087 4.08081 8.52734 4.06263 8.54487 4.04511C8.55859 4.03138 8.57272 4.01829 8.58722 4.00585C8.88188 3.75286 9.32636 3.76595 9.60553 4.04511L17.0301 11.4697C17.1708 11.6104 17.2498 11.8012 17.2498 12.0001C17.2498 12.199 17.1708 12.3897 17.0301 12.5304L9.60553 19.955C9.56891 19.9916 9.52946 20.0237 9.48787 20.0511C9.19676 20.2433 8.80115 20.2113 8.54487 19.955C8.50825 19.9184 8.47622 19.8789 8.44876 19.8374C8.25655 19.5462 8.28858 19.1506 8.54487 18.8944Z" fill="black"/>
</g>
</svg>
