<svg width="24" height="24" viewBox="0 0 24 24" fill="none" xmlns="http://www.w3.org/2000/svg">
<path d="M10.7575 12.0002L15.7075 16.9502C15.803 17.0424 15.8792 17.1528 15.9316 17.2748C15.984 17.3968 16.0116 17.528 16.0128 17.6608C16.0139 17.7936 15.9886 17.9252 15.9384 18.0481C15.8881 18.171 15.8138 18.2827 15.7199 18.3766C15.626 18.4705 15.5144 18.5447 15.3915 18.595C15.2686 18.6453 15.1369 18.6706 15.0041 18.6694C14.8714 18.6683 14.7401 18.6407 14.6181 18.5883C14.4961 18.5359 14.3858 18.4597 14.2935 18.3642L8.63654 12.7072C8.44907 12.5197 8.34375 12.2653 8.34375 12.0002C8.34375 11.735 8.44907 11.4807 8.63654 11.2932L14.2935 5.63618C14.4821 5.45402 14.7347 5.35323 14.9969 5.35551C15.2591 5.35778 15.5099 5.46295 15.6954 5.64836C15.8808 5.83377 15.9859 6.08458 15.9882 6.34678C15.9905 6.60898 15.8897 6.86158 15.7075 7.05018L10.7575 12.0002Z" fill="#1376DD"/>
</svg>
