<svg width="24" height="25" viewBox="0 0 24 25" fill="none" xmlns="http://www.w3.org/2000/svg">
<path d="M13.045 5.60552L19.1893 11.7499H2.75C2.74676 11.7499 2.74353 11.7499 2.7403 11.7499C2.69191 11.7505 2.64462 11.7557 2.59885 11.7651C2.25708 11.835 2 12.1374 2 12.4999C2 12.6034 2.02098 12.7021 2.05894 12.7918C2.17279 13.061 2.43934 13.2499 2.75 13.2499H19.1893L13.045 19.3941C12.7521 19.687 12.7521 20.1619 13.045 20.4548C13.3379 20.7477 13.8128 20.7477 14.1057 20.4548L21.5303 13.0302C21.8232 12.7373 21.8232 12.2624 21.5303 11.9695L14.1057 4.54486C14.1011 4.54028 14.0965 4.53578 14.0918 4.53134C14.0592 4.50031 14.0244 4.47278 13.988 4.44875C13.7801 4.31146 13.5188 4.28858 13.2931 4.38011C13.2028 4.41672 13.1182 4.47164 13.045 4.54486C13.0404 4.54944 13.0359 4.55406 13.0315 4.55872C12.7522 4.85255 12.7567 5.3172 13.045 5.60552Z" fill="white"/>
</svg>
