<svg width="20" height="21" viewBox="0 0 20 21" fill="none" xmlns="http://www.w3.org/2000/svg">
<path d="M8 9C8.4142 9 8.75 9.3358 8.75 9.75V15.25C8.75 15.6642 8.4142 16 8 16C7.58579 16 7.25 15.6642 7.25 15.25V9.75C7.25 9.3358 7.58579 9 8 9Z" fill="#1F598E"/>
<path d="M12.75 9.75C12.75 9.3358 12.4142 9 12 9C11.5858 9 11.25 9.3358 11.25 9.75V15.25C11.25 15.6642 11.5858 16 12 16C12.4142 16 12.75 15.6642 12.75 15.25V9.75Z" fill="#1F598E"/>
<path fill-rule="evenodd" clip-rule="evenodd" d="M5.5 4V2.5C5.5 1.39543 6.39543 0.5 7.5 0.5H12.5C13.6046 0.5 14.5 1.39543 14.5 2.5V4H19.25C19.6642 4 20 4.33579 20 4.75C20 5.16421 19.6642 5.5 19.25 5.5H17.9118L17.1107 19.1174C17.0486 20.1746 16.1731 21 15.1142 21H4.88581C3.82686 21 2.95145 20.1746 2.88926 19.1174L2.08824 5.5H0.75C0.33579 5.5 0 5.16421 0 4.75C0 4.33579 0.33579 4 0.75 4H5.5ZM7.5 2H12.5C12.7761 2 13 2.22386 13 2.5V4H7V2.5C7 2.22386 7.22386 2 7.5 2ZM3.59083 5.5L4.38667 19.0294C4.40222 19.2936 4.62107 19.5 4.88581 19.5H15.1142C15.3789 19.5 15.5978 19.2936 15.6133 19.0294L16.4092 5.5H3.59083Z" fill="#1F598E"/>
</svg>
