<svg width="24" height="24" viewBox="0 0 24 24" fill="none" xmlns="http://www.w3.org/2000/svg">
<path d="M8.54487 18.8942L15.4392 11.9999L8.54487 5.10552C8.50825 5.06891 8.47622 5.02945 8.44876 4.98786C8.38491 4.89116 8.34581 4.78293 8.33145 4.6721C8.32728 4.63994 8.3252 4.60756 8.3252 4.57519C8.3252 4.40621 8.38194 4.23724 8.49544 4.0993C8.51087 4.08056 8.52734 4.06238 8.54487 4.04486C8.55859 4.03113 8.57272 4.01804 8.58722 4.0056C8.88188 3.75261 9.32636 3.7657 9.60553 4.04486L17.0301 11.4695C17.1708 11.6102 17.2498 11.801 17.2498 11.9999C17.2498 12.1988 17.1708 12.3895 17.0301 12.5302L9.60553 19.9548C9.56891 19.9914 9.52946 20.0235 9.48787 20.0509C9.19676 20.2431 8.80115 20.2111 8.54487 19.9548C8.50825 19.9182 8.47622 19.8787 8.44876 19.8372C8.25655 19.546 8.28858 19.1504 8.54487 18.8942Z" fill="black"/>
</svg>
