<svg width="24" height="25" viewBox="0 0 24 25" fill="none" xmlns="http://www.w3.org/2000/svg">
<g id="Interface">
<g id="Vector">
<path d="M11.252 16.25C11.252 16.6642 11.5877 17 12.002 17C12.4162 17 12.752 16.6642 12.752 16.25V13.25H15.752C16.1662 13.25 16.502 12.9142 16.502 12.5C16.502 12.0858 16.1662 11.75 15.752 11.75H12.752V8.75C12.752 8.33579 12.4162 8 12.002 8C11.5877 8 11.252 8.33579 11.252 8.75V11.75H8.25195C7.83774 11.75 7.50195 12.0858 7.50195 12.5C7.50195 12.9142 7.83774 13.25 8.25195 13.25H11.252V16.25Z" fill="white"/>
<path fill-rule="evenodd" clip-rule="evenodd" d="M12.002 22.5C17.5248 22.5 22.002 18.0228 22.002 12.5C22.002 6.97715 17.5248 2.5 12.002 2.5C6.47911 2.5 2.00195 6.97715 2.00195 12.5C2.00195 18.0228 6.47911 22.5 12.002 22.5ZM12.002 21C16.6964 21 20.502 17.1944 20.502 12.5C20.502 7.80558 16.6964 4 12.002 4C7.30753 4 3.50195 7.80558 3.50195 12.5C3.50195 17.1944 7.30753 21 12.002 21Z" fill="white"/>
</g>
</g>
</svg>
