<svg width="21" height="20" viewBox="0 0 21 20" fill="none" xmlns="http://www.w3.org/2000/svg">
<path d="M9.92578 10.7033L5.4543 15.1748C5.287 15.3421 5.07407 15.4258 4.81552 15.4258C4.55696 15.4258 4.34403 15.3421 4.17673 15.1748C4.00943 15.0075 3.92578 14.7946 3.92578 14.536C3.92578 14.2775 4.00943 14.0646 4.17673 13.8973L8.64821 9.42578L4.17673 4.9543C4.00943 4.787 3.92578 4.57407 3.92578 4.31552C3.92578 4.05696 4.00943 3.84403 4.17673 3.67673C4.34403 3.50943 4.55696 3.42578 4.81552 3.42578C5.07407 3.42578 5.287 3.50943 5.4543 3.67673L9.92578 8.14821L14.3973 3.67673C14.5646 3.50943 14.7775 3.42578 15.036 3.42578C15.2946 3.42578 15.5075 3.50943 15.6748 3.67673C15.8421 3.84403 15.9258 4.05696 15.9258 4.31552C15.9258 4.57407 15.8421 4.787 15.6748 4.9543L11.2033 9.42578L15.6748 13.8973C15.8421 14.0646 15.9258 14.2775 15.9258 14.536C15.9258 14.7946 15.8421 15.0075 15.6748 15.1748C15.5075 15.3421 15.2946 15.4258 15.036 15.4258C14.7775 15.4258 14.5646 15.3421 14.3973 15.1748L9.92578 10.7033Z" fill="#DC4536"/>
</svg>
