<svg width="16" height="4" viewBox="0 0 16 4" fill="none" xmlns="http://www.w3.org/2000/svg">
<path d="M0 2C0 2.8284 0.67157 3.5 1.5 3.5C2.32843 3.5 3 2.8284 3 2C3 1.1716 2.32843 0.5 1.5 0.5C0.67157 0.5 0 1.1716 0 2Z" fill="black"/>
<path d="M8 3.5C7.1716 3.5 6.5 2.8284 6.5 2C6.5 1.1716 7.1716 0.5 8 0.5C8.8284 0.5 9.5 1.1716 9.5 2C9.5 2.8284 8.8284 3.5 8 3.5Z" fill="black"/>
<path d="M14.5 3.5C13.6716 3.5 13 2.8284 13 2C13 1.1716 13.6716 0.5 14.5 0.5C15.3284 0.5 16 1.1716 16 2C16 2.8284 15.3284 3.5 14.5 3.5Z" fill="black"/>
</svg>
