<svg width="34" height="26" viewBox="0 0 34 26" fill="none" xmlns="http://www.w3.org/2000/svg">
<path d="M33.4137 10.6569C33.2355 10.554 33.0333 10.4998 32.8275 10.4998C32.6217 10.4998 32.4196 10.554 32.2413 10.6569L17 19.2741L1.75863 10.6569C1.58006 10.5538 1.37745 10.4996 1.17125 10.4998C0.965056 10.5 0.762559 10.5546 0.584192 10.6581C0.405824 10.7615 0.257896 10.9102 0.15533 11.0891C0.0527639 11.2679 -0.000811211 11.4707 9.28449e-06 11.6769V21.7948C9.28449e-06 22.7276 0.370574 23.6223 1.03018 24.2819C1.68979 24.9415 2.58442 25.3121 3.51725 25.3121H30.4827C31.4155 25.3121 32.3102 24.9415 32.9698 24.2819C33.6294 23.6223 34 22.7276 34 21.7948V11.6828C34.0018 11.4752 33.9485 11.2708 33.8455 11.0906C33.7425 10.9104 33.5935 10.7607 33.4137 10.6569Z" fill="#0777E9"/>
<path d="M30.4827 0.691406H3.51725C2.58442 0.691406 1.68979 1.06197 1.03018 1.72158C0.370574 2.38119 9.24199e-06 3.27581 9.24199e-06 4.20864V6.40691C-0.000810939 6.6135 0.0529728 6.81664 0.155914 6.99576C0.258856 7.17488 0.4073 7.32362 0.586215 7.42691L16.4138 16.3666C16.592 16.4695 16.7942 16.5236 17 16.5236C17.2058 16.5236 17.408 16.4695 17.5862 16.3666L33.4137 7.42691C33.5927 7.32362 33.7411 7.17488 33.844 6.99576C33.947 6.81664 34.0008 6.6135 34 6.40691V4.20864C34 3.27581 33.6294 2.38119 32.9698 1.72158C32.3102 1.06197 31.4155 0.691406 30.4827 0.691406Z" fill="#0777E9"/>
</svg>
