<svg width="23" height="20" viewBox="0 0 23 20" fill="none" xmlns="http://www.w3.org/2000/svg">
<path d="M15.6663 10.6332L14.1928 9.1029C14.3453 8.27617 14.1166 7.5022 13.5069 6.781C12.8972 6.05981 12.1097 5.77836 11.1443 5.93668L9.6709 4.40633C9.95882 4.26561 10.251 4.16007 10.5473 4.08971C10.8437 4.01935 11.1613 3.98417 11.5 3.98417C12.7702 3.98417 13.8499 4.44591 14.739 5.36939C15.6282 6.29288 16.0727 7.41425 16.0727 8.73351C16.0727 9.08531 16.0389 9.41513 15.9711 9.72296C15.9034 10.0308 15.8018 10.3342 15.6663 10.6332ZM18.918 13.9578L17.4446 12.4802C18.0881 11.9701 18.6597 11.4116 19.1594 10.8047C19.659 10.1979 20.0866 9.50748 20.4423 8.73351C19.5955 6.9569 18.3803 5.54529 16.7968 4.49868C15.2132 3.45207 13.4477 2.92876 11.5 2.92876C11.0089 2.92876 10.5262 2.96394 10.052 3.0343C9.57775 3.10466 9.11201 3.2102 8.65474 3.35092L7.07968 1.71504C7.77406 1.41601 8.48537 1.19173 9.21363 1.04222C9.94188 0.8927 10.704 0.817942 11.5 0.817942C13.9219 0.817942 16.0982 1.48197 18.0289 2.81003C19.9596 4.13808 21.4076 5.86631 22.373 7.99472C22.4238 8.08267 22.4577 8.19261 22.4746 8.32454C22.4915 8.45646 22.5 8.59279 22.5 8.73351C22.5 8.87423 22.4873 9.01055 22.4619 9.14248C22.4365 9.27441 22.4069 9.38435 22.373 9.4723C21.9834 10.3694 21.4965 11.1961 20.9122 11.9525C20.3279 12.7089 19.6632 13.3773 18.918 13.9578ZM18.7148 19.7098L15.1582 16.0686C14.5654 16.2621 13.9684 16.4072 13.3672 16.504C12.766 16.6007 12.1436 16.6491 11.5 16.6491C9.07814 16.6491 6.90185 15.985 4.97113 14.657C3.04042 13.3289 1.59238 11.6007 0.627021 9.4723C0.576212 9.38435 0.54234 9.27441 0.525404 9.14248C0.508468 9.01055 0.5 8.87423 0.5 8.73351C0.5 8.59279 0.508468 8.46086 0.525404 8.33773C0.54234 8.2146 0.576212 8.10906 0.627021 8.02111C0.982679 7.22955 1.40608 6.49956 1.89723 5.83113C2.38838 5.16271 2.93033 4.54705 3.52309 3.98417L1.41455 1.76781C1.22825 1.57432 1.1351 1.33245 1.1351 1.04222C1.1351 0.751979 1.23672 0.501319 1.43995 0.290237C1.62625 0.0967458 1.86336 0 2.15127 0C2.43918 0 2.67629 0.0967458 2.86259 0.290237L20.1374 18.2322C20.3237 18.4257 20.4211 18.6675 20.4296 18.9578C20.438 19.248 20.3406 19.4987 20.1374 19.7098C19.9511 19.9033 19.714 20 19.4261 20C19.1382 20 18.9011 19.9033 18.7148 19.7098ZM4.94573 5.46174C4.45458 5.91909 4.00577 6.4204 3.59931 6.9657C3.19284 7.51099 2.84565 8.10026 2.55774 8.73351C3.40454 10.5101 4.61971 11.9217 6.20323 12.9683C7.78676 14.015 9.55235 14.5383 11.5 14.5383C11.8387 14.5383 12.169 14.5163 12.4908 14.4723C12.8125 14.4283 13.1428 14.3799 13.4815 14.3272L12.567 13.3245C12.3807 13.3773 12.2028 13.4169 12.0335 13.4433C11.8641 13.4697 11.6863 13.4829 11.5 13.4829C10.2298 13.4829 9.15012 13.0211 8.26097 12.0976C7.37183 11.1741 6.92725 10.0528 6.92725 8.73351C6.92725 8.54002 6.93995 8.35532 6.96536 8.17942C6.99076 8.00352 7.02887 7.81882 7.07968 7.62533L4.94573 5.46174Z" fill="#1F598E"/>
</svg>
