<svg width="23" height="17" viewBox="0 0 23 17" fill="none" xmlns="http://www.w3.org/2000/svg">
<path d="M11.125 13.151C12.3952 13.151 13.4749 12.7065 14.364 11.8173C15.2532 10.9282 15.6977 9.84849 15.6977 8.57828C15.6977 7.30807 15.2532 6.22839 14.364 5.33925C13.4749 4.4501 12.3952 4.00553 11.125 4.00553C9.85479 4.00553 8.77512 4.4501 7.88597 5.33925C6.99683 6.22839 6.55225 7.30807 6.55225 8.57828C6.55225 9.84849 6.99683 10.9282 7.88597 11.8173C8.77512 12.7065 9.85479 13.151 11.125 13.151ZM11.125 11.3219C10.3629 11.3219 9.71507 11.0552 9.18158 10.5217C8.6481 9.98821 8.38135 9.3404 8.38135 8.57828C8.38135 7.81615 8.6481 7.16835 9.18158 6.63486C9.71507 6.10137 10.3629 5.83463 11.125 5.83463C11.8871 5.83463 12.5349 6.10137 13.0684 6.63486C13.6019 7.16835 13.8687 7.81615 13.8687 8.57828C13.8687 9.3404 13.6019 9.98821 13.0684 10.5217C12.5349 11.0552 11.8871 11.3219 11.125 11.3219ZM11.125 16.1995C8.77088 16.1995 6.62 15.5771 4.67234 14.3323C2.72469 13.0875 1.25125 11.4066 0.252021 9.28959C0.201212 9.20491 0.16734 9.09906 0.150404 8.97204C0.133468 8.84502 0.125 8.71377 0.125 8.57828C0.125 8.44279 0.133468 8.31154 0.150404 8.18451C0.16734 8.05749 0.201212 7.95164 0.252021 7.86696C1.25125 5.74995 2.72469 4.06904 4.67234 2.82424C6.62 1.57943 8.77088 0.957031 11.125 0.957031C13.4791 0.957031 15.63 1.57943 17.5777 2.82424C19.5253 4.06904 20.9987 5.74995 21.998 7.86696C22.0488 7.95164 22.0827 8.05749 22.0996 8.18451C22.1165 8.31154 22.125 8.44279 22.125 8.57828C22.125 8.71377 22.1165 8.84502 22.0996 8.97204C22.0827 9.09906 22.0488 9.20491 21.998 9.28959C20.9987 11.4066 19.5253 13.0875 17.5777 14.3323C15.63 15.5771 13.4791 16.1995 11.125 16.1995ZM11.125 14.1672C13.0388 14.1672 14.7959 13.6633 16.3964 12.6556C17.9968 11.6479 19.2205 10.2888 20.0673 8.57828C19.2205 6.86773 17.9968 5.50861 16.3964 4.50091C14.7959 3.49321 13.0388 2.98936 11.125 2.98936C9.21122 2.98936 7.4541 3.49321 5.85364 4.50091C4.25318 5.50861 3.02954 6.86773 2.18274 8.57828C3.02954 10.2888 4.25318 11.6479 5.85364 12.6556C7.4541 13.6633 9.21122 14.1672 11.125 14.1672Z" fill="#1F598E"/>
</svg>
