<svg width="298" height="220" viewBox="0 0 298 220" fill="none" xmlns="http://www.w3.org/2000/svg">
<path d="M0 8.00001C0 3.58173 3.58172 0 8 0H290C294.418 0 298 3.58172 298 8V220H0V8.00001Z" fill="#EEEEEE"/>
<path fill-rule="evenodd" clip-rule="evenodd" d="M119.169 85.9824C127.084 85.9824 133.5 79.4945 133.5 71.4912C133.5 63.4879 127.084 57 119.169 57C111.254 57 104.838 63.4879 104.838 71.4912C104.838 79.4945 111.254 85.9824 119.169 85.9824ZM167.932 78.1157C168.729 77.0741 170.292 77.0741 171.089 78.1157L233.584 159.781C234.59 161.096 233.657 163 232.005 163H144.058L144.048 163H65.9948C64.3569 163 63.4195 161.124 64.398 159.805L103.425 107.188C104.221 106.114 105.822 106.114 106.618 107.188L125.846 133.112L167.932 78.1157Z" fill="#B3B3B3"/>
</svg>
