<svg width="24" height="25" viewBox="0 0 24 25" fill="none" xmlns="http://www.w3.org/2000/svg">
<g id="Commerce" clip-path="url(#clip0_2831_31402)">
<path id="Vector" fill-rule="evenodd" clip-rule="evenodd" d="M2 5.5C2 4.39543 2.89543 3.5 4 3.5H20C21.1046 3.5 22 4.39543 22 5.5V5.72858C22 6.22503 21.8154 6.70375 21.482 7.07162L15.268 13.9284C14.9346 14.2963 14.75 14.775 14.75 15.2714V21.0991C14.75 21.9402 14.2239 22.6913 13.4335 22.9787L10.5917 24.0121C9.93956 24.2493 9.25 23.7663 9.25 23.0723V15.2714C9.25 14.775 9.06536 14.2963 8.73198 13.9284L2.51803 7.07162C2.18465 6.70375 2 6.22503 2 5.72858V5.5ZM3.5 5.5C3.5 5.22386 3.72386 5 4 5H20C20.2761 5 20.5 5.22386 20.5 5.5V5.72858C20.5 5.85269 20.4538 5.97237 20.3705 6.06434L14.1565 12.9211C13.5731 13.5649 13.25 14.4026 13.25 15.2714V21.0991C13.25 21.3094 13.1185 21.4972 12.9209 21.569L10.75 22.3585V15.2714C10.75 14.4026 10.4269 13.5649 9.84346 12.9211L3.62951 6.06434C3.54616 5.97237 3.5 5.85269 3.5 5.72858V5.5Z" fill="black"/>
</g>
<defs>
<clipPath id="clip0_2831_31402">
<rect width="24" height="24" fill="white" transform="translate(0 0.5)"/>
</clipPath>
</defs>
</svg>
