<svg width="22" height="22" viewBox="0 0 22 22" fill="none" xmlns="http://www.w3.org/2000/svg">
<path d="M11 0.5C5.20156 0.5 0.5 5.20156 0.5 11C0.5 16.7984 5.20156 21.5 11 21.5C16.7984 21.5 21.5 16.7984 21.5 11C21.5 5.20156 16.7984 0.5 11 0.5ZM11.9469 15.8141C11.9234 16.6484 11.3047 17.1641 10.5031 17.1406C9.73438 17.1172 9.12969 16.5688 9.15313 15.7297C9.17656 14.8953 9.81406 14.3656 10.5828 14.3891C11.3891 14.4125 11.975 14.9797 11.9469 15.8141ZM14.2297 9.84687C14.0328 10.1234 13.5922 10.4797 13.0391 10.9109L12.425 11.3328C12.125 11.5625 11.9375 11.8344 11.8391 12.1437C11.7875 12.3078 11.75 12.7344 11.7406 13.0203C11.7359 13.0766 11.7031 13.2031 11.5297 13.2031H9.69687C9.50469 13.2031 9.48125 13.0906 9.48594 13.0344C9.51406 12.2562 9.62656 11.6141 9.95 11.0984C10.3859 10.4047 11.6141 9.67344 11.6141 9.67344C11.8016 9.53281 11.9469 9.38281 12.0594 9.21875C12.2656 8.9375 12.4344 8.62344 12.4344 8.28594C12.4344 7.89688 12.3406 7.52656 12.0922 7.21719C11.8016 6.85625 11.4875 6.68281 10.8828 6.68281C10.2875 6.68281 9.94063 6.98281 9.69219 7.37656C9.44375 7.77031 9.48594 8.23438 9.48594 8.65625H7.20312C7.20312 7.0625 7.62031 6.04531 8.50156 5.44531C9.09688 5.0375 9.85625 4.85938 10.7422 4.85938C11.9047 4.85938 12.8281 5.075 13.6437 5.69375C14.3984 6.26562 14.7969 7.07187 14.7969 8.15937C14.7969 8.82969 14.5625 9.39219 14.2297 9.84687Z" fill="#144272"/>
</svg>
