<svg width="710" height="879" viewBox="0 0 710 879" fill="none" xmlns="http://www.w3.org/2000/svg">
<g clip-path="url(#clip0_1206_1704)">
<path fill-rule="evenodd" clip-rule="evenodd" d="M667.125 216.999V221.407C670.972 222.05 674.514 223.592 677.527 225.809L680.71 222.626L686.444 228.36L683.175 231.628C685.259 234.645 686.681 238.153 687.233 241.944H692.07V250.054H687.063C686.372 253.704 684.87 257.066 682.751 259.946L686.443 263.638L680.709 269.372L676.932 265.595C674.051 267.585 670.721 268.972 667.125 269.573V274.999H659.016V269.573C655.419 268.972 652.089 267.584 649.208 265.595L645.431 269.372L639.697 263.638L643.389 259.946C641.271 257.066 639.768 253.704 639.078 250.054H634.07V241.944H638.908C639.459 238.153 640.882 234.644 642.966 231.628L639.697 228.36L645.431 222.626L648.614 225.809C651.627 223.592 655.169 222.05 659.016 221.407V216.999H667.125ZM660.016 222.269C655.708 222.83 651.768 224.562 648.526 227.135L645.431 224.04L641.111 228.36L644.273 231.521C641.847 234.78 640.249 238.692 639.789 242.944H635.07V249.054H639.922C640.549 253.162 642.244 256.92 644.715 260.034L641.111 263.638L645.431 267.957L649.101 264.287C652.23 266.616 655.96 268.182 660.016 268.711V273.999H666.125V268.711C670.181 268.182 673.91 266.616 677.039 264.288L680.709 267.958L685.029 263.638L681.425 260.034C683.896 256.92 685.592 253.163 686.219 249.054H691.07V242.944H686.352C685.892 238.692 684.294 234.78 681.868 231.521L685.029 228.36L680.71 224.041L677.615 227.135C674.373 224.562 670.433 222.83 666.125 222.269V217.999H660.016V222.269Z" fill="white"/>
<path d="M679.07 245.999C679.07 254.836 671.907 261.999 663.07 261.999C654.234 261.999 647.07 254.836 647.07 245.999C647.07 237.162 654.234 229.999 663.07 229.999C671.907 229.999 679.07 237.162 679.07 245.999Z" fill="#181818" fill-opacity="0.15"/>
<path d="M666.07 245.999C666.07 247.656 664.727 248.999 663.07 248.999C661.413 248.999 660.07 247.656 660.07 245.999C660.07 244.342 661.413 242.999 663.07 242.999C664.727 242.999 666.07 244.342 666.07 245.999Z" fill="white"/>
<path fill-rule="evenodd" clip-rule="evenodd" d="M687.157 275V277.812C689.611 278.222 691.87 279.206 693.793 280.62L695.823 278.59L699.481 282.248L697.396 284.333C698.725 286.257 699.632 288.495 699.984 290.913H703.07V296.087H699.876C699.435 298.415 698.477 300.56 697.125 302.397L699.481 304.753L695.823 308.41L693.413 306.001C691.575 307.27 689.451 308.155 687.157 308.538V312H681.984V308.538C679.689 308.155 677.565 307.27 675.727 306.001L673.318 308.41L669.66 304.752L672.015 302.397C670.664 300.56 669.705 298.415 669.265 296.087H666.07V290.913H669.156C669.508 288.495 670.416 286.256 671.745 284.332L669.66 282.247L673.318 278.59L675.348 280.62C677.271 279.206 679.53 278.222 681.984 277.812V275H687.157ZM682.622 278.362C679.874 278.72 677.36 279.825 675.292 281.466L673.318 279.492L670.562 282.247L672.579 284.264C671.031 286.343 670.012 288.838 669.718 291.551H666.708V295.449H669.803C670.203 298.07 671.285 300.467 672.861 302.453L670.562 304.752L673.318 307.508L675.659 305.167C677.655 306.652 680.034 307.651 682.622 307.988V311.362H686.519V307.988C689.106 307.651 691.486 306.652 693.481 305.167L695.823 307.508L698.579 304.753L696.28 302.454C697.856 300.467 698.937 298.07 699.338 295.449H702.432V291.551H699.422C699.129 288.838 698.109 286.343 696.562 284.264L698.579 282.248L695.823 279.492L693.849 281.466C691.78 279.825 689.267 278.72 686.519 278.362V275.638H682.622V278.362Z" fill="white"/>
<path d="M694.777 293.5C694.777 299.137 690.207 303.707 684.57 303.707C678.933 303.707 674.363 299.137 674.363 293.5C674.363 287.863 678.933 283.293 684.57 283.293C690.207 283.293 694.777 287.863 694.777 293.5Z" fill="#181818" fill-opacity="0.15"/>
<path d="M686.484 293.5C686.484 294.557 685.627 295.414 684.57 295.414C683.513 295.414 682.656 294.557 682.656 293.5C682.656 292.443 683.513 291.586 684.57 291.586C685.627 291.586 686.484 292.443 686.484 293.5Z" fill="white"/>
<path fill-rule="evenodd" clip-rule="evenodd" d="M72.0703 112.587C66.5475 112.587 62.0703 117.064 62.0703 122.587V195.779C62.0703 201.301 66.5475 205.779 72.0703 205.779H180.576L203.332 221.999V205.779H207.783C213.306 205.779 217.783 201.301 217.783 195.779V122.587C217.783 117.064 213.306 112.587 207.783 112.587H72.0703Z" fill="white" fill-opacity="0.3"/>
<path fill-rule="evenodd" clip-rule="evenodd" d="M122.398 35.999C116.876 35.999 112.398 40.4762 112.398 45.999V137.829C112.398 143.352 116.876 147.829 122.398 147.829H254.605L281.913 167.293V147.829H289.254C294.777 147.829 299.254 143.352 299.254 137.829V45.999C299.254 40.4762 294.777 35.999 289.254 35.999H122.398Z" fill="white" fill-opacity="0.5"/>
<path fill-rule="evenodd" clip-rule="evenodd" d="M699.928 340C705.451 340 709.928 344.477 709.928 350V420.286C709.928 425.809 705.451 430.286 699.928 430.286H595.118L573.071 446V430.286H569.07C563.548 430.286 559.07 425.809 559.07 420.286V350C559.07 344.477 563.548 340 569.07 340H699.928Z" fill="white" fill-opacity="0.27"/>
<path d="M257.07 522H367.57V765H257.07V522Z" fill="url(#paint0_linear_1206_1704)"/>
<path d="M367.57 522L443.07 477V706L367.57 765V522Z" fill="url(#paint1_linear_1206_1704)"/>
<path d="M328.07 477.5H442.07L367.57 522H257.57L328.07 477.5Z" fill="url(#paint2_linear_1206_1704)"/>
<path d="M19.0703 636H129.57V879H19.0703V636Z" fill="url(#paint3_linear_1206_1704)"/>
<path d="M129.57 636L205.07 591V820L129.57 879V636Z" fill="url(#paint4_linear_1206_1704)"/>
<path d="M90.0703 591.5H204.07L129.57 636H19.5703L90.0703 591.5Z" fill="url(#paint5_linear_1206_1704)"/>
<path d="M483.07 580H593.57V823H483.07V580Z" fill="url(#paint6_linear_1206_1704)" fill-opacity="0.66"/>
<path d="M594.07 580.5L669.07 554V764L594.07 823V580.5Z" fill="url(#paint7_linear_1206_1704)" fill-opacity="0.57"/>
<path d="M553.57 553H668.57L594.57 580H484.07L553.57 553Z" fill="url(#paint8_linear_1206_1704)" fill-opacity="0.54"/>
<path d="M490.07 279.499C490.07 337.765 442.836 384.999 384.57 384.999C326.304 384.999 279.07 337.765 279.07 279.499C279.07 221.233 326.304 173.999 384.57 173.999C442.836 173.999 490.07 221.233 490.07 279.499Z" fill="#D9D9D9" fill-opacity="0.15"/>
<path d="M486.989 31.2212C484.034 24.3751 478.911 18.6899 472.408 15.041C465.906 11.392 458.384 9.98153 451.001 11.0267C443.618 12.0719 436.783 15.5147 431.549 20.8252C426.314 26.1357 422.971 33.0195 422.032 40.4168C421.094 47.8141 422.613 55.3148 426.355 61.7641C430.098 68.2135 435.856 73.254 442.744 76.1096C449.632 78.9653 457.268 79.4777 464.476 77.5681C471.684 75.6585 478.064 71.4328 482.635 65.5414L455.767 44.6966L486.989 31.2212Z" fill="#F7F8F9" fill-opacity="0.51"/>
<path d="M408.181 87.861C415.508 92.342 424.259 93.8844 432.676 92.1785C441.094 90.4726 448.554 85.6448 453.559 78.6647C458.563 71.6847 460.741 63.0696 459.655 54.5499C458.569 46.0302 454.299 38.237 447.703 32.7359C441.107 27.2348 432.675 24.4332 424.098 24.8938C415.522 25.3545 407.438 29.0433 401.469 35.2193C395.501 41.3953 392.09 49.6009 391.923 58.188C391.756 66.775 394.844 75.1073 400.567 81.5111L425.922 58.8505L408.181 87.861Z" fill="#3F648C" fill-opacity="0.85"/>
<path d="M506.928 551.894C511.322 554.581 516.57 555.506 521.618 554.483C526.666 553.46 531.14 550.565 534.141 546.379C537.142 542.193 538.448 537.026 537.797 531.917C537.145 526.808 534.585 522.134 530.629 518.835C526.674 515.536 521.617 513.856 516.474 514.132C511.33 514.409 506.482 516.621 502.903 520.324C499.324 524.028 497.278 528.949 497.178 534.099C497.078 539.248 498.93 544.245 502.362 548.086L517.567 534.496L506.928 551.894Z" fill="#3F648C" fill-opacity="0.85"/>
<path d="M64.0703 465C64.0703 460.029 68.0998 456 73.0703 456H121.07C126.041 456 130.07 460.029 130.07 465V570C130.07 574.971 126.041 579 121.07 579H73.0703C68.0997 579 64.0703 574.971 64.0703 570V465Z" fill="#D9D9D9" fill-opacity="0.22"/>
<path d="M542.07 142.999C542.07 138.028 546.1 133.999 551.07 133.999H577.07C582.041 133.999 586.07 138.028 586.07 142.999V207.999C586.07 212.97 582.041 216.999 577.07 216.999H551.07C546.1 216.999 542.07 212.97 542.07 207.999V142.999Z" fill="#D9D9D9" fill-opacity="0.22"/>
<path d="M95.0703 433C95.0703 428.029 99.0998 424 104.07 424H152.07C157.041 424 161.07 428.029 161.07 433V538C161.07 542.971 157.041 547 152.07 547H104.07C99.0997 547 95.0703 542.971 95.0703 538V433Z" fill="#D9D9D9" fill-opacity="0.22"/>
<path d="M563.07 121.999C563.07 117.028 567.1 112.999 572.07 112.999H598.07C603.041 112.999 607.07 117.028 607.07 121.999V186.999C607.07 191.97 603.041 195.999 598.07 195.999H572.07C567.1 195.999 563.07 191.97 563.07 186.999V121.999Z" fill="#D9D9D9" fill-opacity="0.22"/>
<path d="M495.07 330.13C495.07 328.034 496.77 326.334 498.867 326.334C500.963 326.334 502.663 328.034 502.663 330.13V486.203C502.663 488.3 500.963 489.999 498.867 489.999C496.77 489.999 495.07 488.3 495.07 486.203V330.13Z" fill="url(#paint9_linear_1206_1704)"/>
<path d="M512.787 287.949C512.787 285.852 514.487 284.152 516.583 284.152C518.68 284.152 520.38 285.852 520.38 287.949V444.021C520.38 446.118 518.68 447.818 516.583 447.818C514.487 447.818 512.787 446.118 512.787 444.021V287.949Z" fill="url(#paint10_linear_1206_1704)"/>
<path d="M530.504 261.796C530.504 259.7 532.204 258 534.3 258C536.397 258 538.097 259.7 538.097 261.796V417.869C538.097 419.966 536.397 421.665 534.3 421.665C532.204 421.665 530.504 419.966 530.504 417.869V261.796Z" fill="url(#paint11_linear_1206_1704)"/>
<path d="M413.598 739.854C413.598 738.318 412.352 737.072 410.816 737.072C409.279 737.072 408.034 738.318 408.034 739.854V854.218C408.034 855.754 409.279 857 410.816 857C412.352 857 413.598 855.754 413.598 854.218V739.854Z" fill="url(#paint12_linear_1206_1704)"/>
<path d="M400.617 708.946C400.617 707.41 399.372 706.164 397.835 706.164C396.299 706.164 395.054 707.41 395.054 708.946V823.31C395.054 824.846 396.299 826.091 397.835 826.091C399.372 826.091 400.617 824.846 400.617 823.31V708.946Z" fill="url(#paint13_linear_1206_1704)"/>
<path d="M387.633 689.782C387.633 688.245 386.387 687 384.851 687C383.315 687 382.069 688.245 382.069 689.782V804.145C382.069 805.682 383.315 806.927 384.851 806.927C386.387 806.927 387.633 805.682 387.633 804.145V689.782Z" fill="url(#paint14_linear_1206_1704)"/>
<path d="M237.598 508.854C237.598 507.318 236.352 506.072 234.816 506.072C233.279 506.072 232.034 507.318 232.034 508.854V623.218C232.034 624.754 233.279 626 234.816 626C236.352 626 237.598 624.754 237.598 623.218V508.854Z" fill="url(#paint15_linear_1206_1704)"/>
<path d="M224.617 477.946C224.617 476.41 223.372 475.164 221.835 475.164C220.299 475.164 219.054 476.41 219.054 477.946V592.31C219.054 593.846 220.299 595.091 221.835 595.091C223.372 595.091 224.617 593.846 224.617 592.31V477.946Z" fill="url(#paint16_linear_1206_1704)"/>
<path d="M211.633 458.782C211.633 457.245 210.387 456 208.851 456C207.315 456 206.069 457.245 206.069 458.782V573.145C206.069 574.682 207.315 575.927 208.851 575.927C210.387 575.927 211.633 574.682 211.633 573.145V458.782Z" fill="url(#paint17_linear_1206_1704)"/>
<path d="M566.246 479.059C566.246 475.16 569.406 472 573.305 472H622.717C626.615 472 629.776 475.16 629.776 479.059V523.176C629.776 527.075 626.615 530.235 622.717 530.235H573.305C569.406 530.235 566.246 527.075 566.246 523.176V479.059Z" fill="#181818" fill-opacity="0.15"/>
<path fill-rule="evenodd" clip-rule="evenodd" d="M616.297 536.65L627.531 503.12C628.297 500.834 626.595 498.47 624.184 498.47H551.472L556.342 539.058H612.95C614.467 539.058 615.815 538.088 616.297 536.65ZM554.777 540.823L549.482 496.705H624.184C627.801 496.705 630.353 500.251 629.204 503.681L617.97 537.21C617.247 539.368 615.226 540.823 612.95 540.823H554.777Z" fill="white"/>
<path fill-rule="evenodd" clip-rule="evenodd" d="M530.07 482.587C530.07 482.1 530.465 481.705 530.953 481.705H541.944C545.947 481.705 549.325 484.685 549.823 488.657L556.471 541.592C556.859 544.682 559.486 546.999 562.599 546.999H612.129C612.616 546.999 613.011 547.394 613.011 547.882C613.011 548.369 612.616 548.764 612.129 548.764H562.599C558.596 548.764 555.219 545.784 554.72 541.812L548.072 488.877C547.684 485.787 545.058 483.47 541.944 483.47H530.953C530.465 483.47 530.07 483.075 530.07 482.587Z" fill="white"/>
<path d="M569.776 556.704C569.776 559.628 567.405 561.998 564.482 561.998C561.558 561.998 559.188 559.628 559.188 556.704C559.188 553.78 561.558 551.41 564.482 551.41C567.405 551.41 569.776 553.78 569.776 556.704Z" fill="white"/>
<path d="M612.129 556.704C612.129 559.628 609.759 561.998 606.835 561.998C603.911 561.998 601.541 559.628 601.541 556.704C601.541 553.78 603.911 551.41 606.835 551.41C609.759 551.41 612.129 553.78 612.129 556.704Z" fill="white"/>
<path fill-rule="evenodd" clip-rule="evenodd" d="M474.57 108.734L455.485 95.0225C455.291 95.2936 455.102 95.5685 454.919 95.847C453.076 98.6581 451.854 101.836 451.343 105.166C450.78 108.826 451.091 112.568 452.25 116.085C453.408 119.603 455.381 122.796 458.009 125.406C460.636 128.016 463.843 129.968 467.368 131.103C470.893 132.238 474.636 132.524 478.293 131.938C481.949 131.351 485.415 129.909 488.408 127.728C491.402 125.547 493.837 122.69 495.516 119.389C497.044 116.386 497.906 113.093 498.049 109.734C498.063 109.402 498.07 109.068 498.07 108.734H474.57ZM497.048 109.734H474.248L455.732 96.431C453.98 99.1137 452.819 102.143 452.331 105.318C451.793 108.822 452.09 112.405 453.199 115.772C454.308 119.14 456.198 122.198 458.713 124.697C461.229 127.196 464.299 129.065 467.674 130.151C471.049 131.238 474.633 131.512 478.134 130.95C481.635 130.389 484.954 129.008 487.82 126.92C490.685 124.832 493.017 122.096 494.625 118.936C496.081 116.073 496.906 112.935 497.048 109.734Z" fill="white"/>
<path fill-rule="evenodd" clip-rule="evenodd" d="M477.184 82.809C477.187 82.809 477.19 82.809 477.193 82.809C477.524 82.8107 477.855 82.8193 478.184 82.835C484.032 83.112 489.579 85.5712 493.716 89.7475C497.854 93.9237 500.261 99.4933 500.484 105.344C500.496 105.674 500.502 106.004 500.5 106.336C500.5 106.338 500.5 106.341 500.5 106.344L477.075 106.234L477.184 82.809ZM478.079 105.239L478.179 83.8359C483.762 84.111 489.055 86.4634 493.006 90.4512C496.957 94.4391 499.26 99.754 499.483 105.339L478.079 105.239Z" fill="white"/>
<path fill-rule="evenodd" clip-rule="evenodd" d="M474.57 108.733L474.629 85.2335C474.296 85.2326 473.962 85.2389 473.629 85.2522C470.324 85.3847 467.08 86.2138 464.111 87.6896C460.843 89.3139 457.998 91.6771 455.802 94.5918C453.605 97.5065 452.118 100.893 451.458 104.482C450.798 108.071 450.983 111.765 451.998 115.27C453.013 118.776 454.831 121.996 457.307 124.677C459.783 127.358 462.849 129.426 466.263 130.716C469.677 132.006 473.344 132.483 476.974 132.11C480.273 131.771 483.458 130.738 486.323 129.084C486.611 128.917 486.896 128.744 487.178 128.565L474.57 108.733ZM485.786 128.239L473.57 109.023L473.627 86.2532C470.477 86.3854 467.386 87.1784 464.556 88.585C461.427 90.1403 458.703 92.4029 456.6 95.1936C454.498 97.9842 453.074 101.226 452.442 104.663C451.809 108.099 451.986 111.636 452.958 114.992C453.93 118.348 455.671 121.432 458.041 123.999C460.412 126.566 463.348 128.545 466.616 129.781C469.885 131.016 473.396 131.473 476.872 131.115C480.016 130.792 483.052 129.811 485.786 128.239Z" fill="white"/>
<path d="M24.7969 546.818C24.7969 543.605 27.4018 541 30.6151 541H88.7969C92.0102 541 94.6151 543.605 94.6151 546.818V599.182C94.6151 602.395 92.0102 605 88.7969 605H30.6151C27.4018 605 24.7969 602.395 24.7969 599.182V546.818Z" fill="#181818" fill-opacity="0.15"/>
<path fill-rule="evenodd" clip-rule="evenodd" d="M71.343 598.455H0.0703125V597H71.343V598.455Z" fill="white"/>
<path fill-rule="evenodd" clip-rule="evenodd" d="M40.7971 559.91H33.5243C32.721 559.91 32.0698 560.561 32.0698 561.364V591.91C32.0698 592.713 32.721 593.364 33.5243 593.364H40.7971C41.6004 593.364 42.2516 592.713 42.2516 591.91V561.364C42.2516 560.561 41.6004 559.91 40.7971 559.91ZM33.5243 558.455C31.9177 558.455 30.6152 559.758 30.6152 561.364V591.91C30.6152 593.516 31.9177 594.819 33.5243 594.819H40.7971C42.4037 594.819 43.7061 593.516 43.7061 591.91V561.364C43.7061 559.758 42.4037 558.455 40.7971 558.455H33.5243Z" fill="white"/>
<path fill-rule="evenodd" clip-rule="evenodd" d="M18.0237 565.662H10.6309C9.81434 565.662 9.15238 566.207 9.15238 566.879V592.428C9.15238 593.1 9.81434 593.645 10.6309 593.645H18.0237C18.8402 593.645 19.5022 593.1 19.5022 592.428V566.879C19.5022 566.207 18.8402 565.662 18.0237 565.662ZM10.6309 564.445C8.99777 564.445 7.67383 565.535 7.67383 566.879V592.428C7.67383 593.772 8.99776 594.861 10.6309 594.861H18.0237C19.6568 594.861 20.9808 593.772 20.9808 592.428V566.879C20.9808 565.535 19.6568 564.445 18.0237 564.445H10.6309Z" fill="white"/>
<path fill-rule="evenodd" clip-rule="evenodd" d="M62.6154 545.363H55.3427C54.5394 545.363 53.8881 546.014 53.8881 546.817V591.908C53.8881 592.712 54.5394 593.363 55.3427 593.363H62.6154C63.4187 593.363 64.07 592.712 64.07 591.908V546.817C64.07 546.014 63.4187 545.363 62.6154 545.363ZM55.3427 543.908C53.736 543.908 52.4336 545.211 52.4336 546.817V591.908C52.4336 593.515 53.736 594.817 55.3427 594.817H62.6154C64.2221 594.817 65.5245 593.515 65.5245 591.908V546.817C65.5245 545.211 64.2221 543.908 62.6154 543.908H55.3427Z" fill="white"/>
<path d="M283.993 337.581C284.67 336.708 285.926 336.549 286.799 337.225C287.672 337.902 287.832 339.158 287.155 340.031L253.458 383.5C252.781 384.373 251.525 384.532 250.652 383.855C249.779 383.179 249.62 381.922 250.297 381.049L283.993 337.581Z" fill="url(#paint18_linear_1206_1704)"/>
<path d="M272.993 284.581C273.67 283.708 274.926 283.549 275.799 284.225C276.672 284.902 276.832 286.158 276.155 287.031L242.458 330.5C241.781 331.373 240.525 331.532 239.652 330.855C238.779 330.179 238.62 328.922 239.297 328.049L272.993 284.581Z" fill="url(#paint19_linear_1206_1704)"/>
<path d="M320.993 367.581C321.67 366.708 322.926 366.549 323.799 367.225C324.672 367.902 324.832 369.158 324.155 370.031L290.458 413.5C289.781 414.373 288.525 414.532 287.652 413.855C286.779 413.179 286.62 411.922 287.297 411.049L320.993 367.581Z" fill="url(#paint20_linear_1206_1704)"/>
<path d="M445.86 390.739C436.664 402.456 425.192 412.264 412.117 419.593C363.206 446.828 301.97 432.921 268.61 389.697C265.01 385.03 258.56 383.795 253.443 386.65C252.214 387.315 251.734 388.935 252.493 390.074C283.011 442.633 350.881 461.583 404.063 432.063C421.976 422.063 436.951 407.404 447.098 389.496C446.81 389.977 446.331 390.354 445.86 390.739Z" fill="white"/>
<path d="M246.139 374.836C240.83 360.93 238.18 345.982 238.651 330.938C240.36 274.569 283.77 228.569 337.989 222.098C343.489 221.432 347.56 216.765 347.752 211.239C347.848 209.523 346.427 207.999 344.719 207.999C284.432 207.903 233.909 256.758 232.113 317.697C231.547 338.267 236.568 358.645 246.618 376.64C246.427 375.975 246.331 375.406 246.139 374.836Z" fill="white"/>
<path d="M359.886 208.577C374.574 210.766 388.8 215.907 401.597 223.718C449.182 252.765 467.566 312.653 447.186 362.936C444.815 368.838 446.995 375.502 452.399 378.838C453.253 379.311 454.291 379.031 454.77 378.269C485.576 325.517 468.421 256.477 416.285 224.48C398.651 213.814 378.558 208.104 358.082 208.008C358.657 208.192 359.224 208.384 359.886 208.577Z" fill="white"/>
<path d="M329.839 277.521C336.907 277.521 342.636 271.765 342.636 264.666C342.636 257.566 336.907 251.811 329.839 251.811C322.772 251.811 317.043 257.566 317.043 264.666C317.043 271.765 322.772 277.521 329.839 277.521Z" fill="white"/>
<path d="M369.459 273.422C376.526 273.422 382.255 267.667 382.255 260.567C382.255 253.467 376.526 247.712 369.459 247.712C362.391 247.712 356.662 253.467 356.662 260.567C356.662 267.667 362.391 273.422 369.459 273.422Z" fill="white"/>
<path d="M426.432 287.801C425.865 281.802 420.652 277.424 414.96 277.993L305.955 290.279C303.018 290.568 300.176 291.234 297.421 292.276C289.934 295.323 284.625 302.749 284.625 311.418V321.226C284.625 326.936 288.792 332.085 294.484 332.654C301.022 333.319 306.522 328.179 306.522 321.699V318.275C306.522 314.851 309.085 312.084 312.397 311.707L319.597 310.849V394.644C319.597 400.354 323.764 405.503 329.456 406.072C335.994 406.738 341.494 401.597 341.494 395.117V308.371L358.178 306.471V395.695C358.178 401.405 362.345 406.554 368.037 407.123C374.575 407.789 380.075 402.648 380.075 396.168V309.798C380.075 306.462 382.542 303.704 385.854 303.327L417.227 299.807C422.919 299.229 427.094 293.799 426.432 287.801Z" fill="white"/>
</g>
<defs>
<linearGradient id="paint0_linear_1206_1704" x1="312.32" y1="522" x2="312.32" y2="765" gradientUnits="userSpaceOnUse">
<stop stop-color="#D9D9D9" stop-opacity="0.62"/>
<stop offset="0.962883" stop-color="#D9D9D9" stop-opacity="0"/>
</linearGradient>
<linearGradient id="paint1_linear_1206_1704" x1="405.32" y1="477" x2="405.57" y2="729.5" gradientUnits="userSpaceOnUse">
<stop stop-color="#E5E5E5" stop-opacity="0.39"/>
<stop offset="1" stop-color="#D9D9D9" stop-opacity="0"/>
</linearGradient>
<linearGradient id="paint2_linear_1206_1704" x1="308.07" y1="522" x2="426.07" y2="490.5" gradientUnits="userSpaceOnUse">
<stop stop-color="#D9D9D9" stop-opacity="0.69"/>
<stop offset="1" stop-color="#D9D9D9" stop-opacity="0"/>
</linearGradient>
<linearGradient id="paint3_linear_1206_1704" x1="74.3203" y1="636" x2="74.3203" y2="879" gradientUnits="userSpaceOnUse">
<stop stop-color="#D9D9D9" stop-opacity="0.62"/>
<stop offset="0.962883" stop-color="#D9D9D9" stop-opacity="0"/>
</linearGradient>
<linearGradient id="paint4_linear_1206_1704" x1="167.32" y1="591" x2="167.57" y2="843.5" gradientUnits="userSpaceOnUse">
<stop stop-color="#E5E5E5" stop-opacity="0.39"/>
<stop offset="1" stop-color="#D9D9D9" stop-opacity="0"/>
</linearGradient>
<linearGradient id="paint5_linear_1206_1704" x1="70.0703" y1="636" x2="188.07" y2="604.5" gradientUnits="userSpaceOnUse">
<stop stop-color="#D9D9D9" stop-opacity="0.69"/>
<stop offset="1" stop-color="#D9D9D9" stop-opacity="0"/>
</linearGradient>
<linearGradient id="paint6_linear_1206_1704" x1="538.32" y1="580" x2="538.32" y2="823" gradientUnits="userSpaceOnUse">
<stop stop-color="#D9D9D9" stop-opacity="0.62"/>
<stop offset="0.962883" stop-color="#D9D9D9" stop-opacity="0"/>
</linearGradient>
<linearGradient id="paint7_linear_1206_1704" x1="631.57" y1="535" x2="631.822" y2="787.5" gradientUnits="userSpaceOnUse">
<stop stop-color="#E5E5E5" stop-opacity="0.39"/>
<stop offset="1" stop-color="#D9D9D9" stop-opacity="0"/>
</linearGradient>
<linearGradient id="paint8_linear_1206_1704" x1="534.433" y1="580" x2="643.492" y2="536.932" gradientUnits="userSpaceOnUse">
<stop stop-color="#D9D9D9" stop-opacity="0.69"/>
<stop offset="1" stop-color="#D9D9D9" stop-opacity="0"/>
</linearGradient>
<linearGradient id="paint9_linear_1206_1704" x1="498.867" y1="326.334" x2="498.867" y2="489.999" gradientUnits="userSpaceOnUse">
<stop stop-color="#D9D9D9" stop-opacity="0.38"/>
<stop offset="1" stop-color="#D9D9D9" stop-opacity="0"/>
</linearGradient>
<linearGradient id="paint10_linear_1206_1704" x1="516.583" y1="284.152" x2="516.583" y2="447.818" gradientUnits="userSpaceOnUse">
<stop stop-color="#D9D9D9" stop-opacity="0.38"/>
<stop offset="1" stop-color="#D9D9D9" stop-opacity="0"/>
</linearGradient>
<linearGradient id="paint11_linear_1206_1704" x1="534.3" y1="258" x2="534.3" y2="421.665" gradientUnits="userSpaceOnUse">
<stop stop-color="#D9D9D9" stop-opacity="0.38"/>
<stop offset="1" stop-color="#D9D9D9" stop-opacity="0"/>
</linearGradient>
<linearGradient id="paint12_linear_1206_1704" x1="410.816" y1="737.072" x2="410.816" y2="857" gradientUnits="userSpaceOnUse">
<stop stop-color="#D9D9D9" stop-opacity="0.38"/>
<stop offset="1" stop-color="#D9D9D9" stop-opacity="0"/>
</linearGradient>
<linearGradient id="paint13_linear_1206_1704" x1="397.835" y1="706.164" x2="397.835" y2="826.091" gradientUnits="userSpaceOnUse">
<stop stop-color="#D9D9D9" stop-opacity="0.38"/>
<stop offset="1" stop-color="#D9D9D9" stop-opacity="0"/>
</linearGradient>
<linearGradient id="paint14_linear_1206_1704" x1="384.851" y1="687" x2="384.851" y2="806.927" gradientUnits="userSpaceOnUse">
<stop stop-color="#D9D9D9" stop-opacity="0.38"/>
<stop offset="1" stop-color="#D9D9D9" stop-opacity="0"/>
</linearGradient>
<linearGradient id="paint15_linear_1206_1704" x1="234.816" y1="506.072" x2="234.816" y2="626" gradientUnits="userSpaceOnUse">
<stop stop-color="#D9D9D9" stop-opacity="0.38"/>
<stop offset="1" stop-color="#D9D9D9" stop-opacity="0"/>
</linearGradient>
<linearGradient id="paint16_linear_1206_1704" x1="221.835" y1="475.164" x2="221.835" y2="595.091" gradientUnits="userSpaceOnUse">
<stop stop-color="#D9D9D9" stop-opacity="0.38"/>
<stop offset="1" stop-color="#D9D9D9" stop-opacity="0"/>
</linearGradient>
<linearGradient id="paint17_linear_1206_1704" x1="208.851" y1="456" x2="208.851" y2="575.927" gradientUnits="userSpaceOnUse">
<stop stop-color="#D9D9D9" stop-opacity="0.38"/>
<stop offset="1" stop-color="#D9D9D9" stop-opacity="0"/>
</linearGradient>
<linearGradient id="paint18_linear_1206_1704" x1="286.799" y1="337.225" x2="250.652" y2="383.855" gradientUnits="userSpaceOnUse">
<stop stop-color="#D9D9D9" stop-opacity="0"/>
<stop offset="1" stop-color="#D9D9D9" stop-opacity="0.39"/>
</linearGradient>
<linearGradient id="paint19_linear_1206_1704" x1="275.799" y1="284.225" x2="239.652" y2="330.855" gradientUnits="userSpaceOnUse">
<stop stop-color="#D9D9D9" stop-opacity="0"/>
<stop offset="1" stop-color="#D9D9D9" stop-opacity="0.39"/>
</linearGradient>
<linearGradient id="paint20_linear_1206_1704" x1="323.799" y1="367.225" x2="287.652" y2="413.855" gradientUnits="userSpaceOnUse">
<stop stop-color="#D9D9D9" stop-opacity="0"/>
<stop offset="1" stop-color="#D9D9D9" stop-opacity="0.39"/>
</linearGradient>
<clipPath id="clip0_1206_1704">
<rect width="709.857" height="879" fill="white" transform="translate(0.0703125)"/>
</clipPath>
</defs>
</svg>
