<svg width="14" height="14" viewBox="0 0 14 14" fill="none" xmlns="http://www.w3.org/2000/svg">
<path d="M7.5167 4.09396C7.5203 3.9074 7.37003 3.75423 7.18343 3.75423H6.81156C6.62496 3.75423 6.4747 3.9074 6.4783 4.09396L6.54856 7.75695C6.55203 7.93855 6.70023 8.08389 6.88183 8.08389H7.11316C7.29476 8.08389 7.44297 7.93855 7.44643 7.75695L7.5167 4.09396Z" fill="#808080"/>
<path d="M6.54523 10.175C6.67097 10.2986 6.82223 10.3604 6.9991 10.3604C7.11416 10.3604 7.21963 10.3316 7.3155 10.2741C7.41136 10.2166 7.4881 10.1399 7.54563 10.044C7.6053 9.94601 7.63616 9.83841 7.6383 9.72121C7.63616 9.54647 7.57223 9.39734 7.44656 9.27374C7.32083 9.14807 7.1717 9.08521 6.9991 9.08521C6.82223 9.08521 6.67097 9.14807 6.54523 9.27374C6.41957 9.39734 6.35776 9.54647 6.3599 9.72121C6.35776 9.89807 6.41957 10.0493 6.54523 10.175Z" fill="#808080"/>
<path fill-rule="evenodd" clip-rule="evenodd" d="M6.9987 13.6663C10.6806 13.6663 13.6654 10.6815 13.6654 6.99967C13.6654 3.31777 10.6806 0.333008 6.9987 0.333008C3.3168 0.333008 0.332031 3.31777 0.332031 6.99967C0.332031 10.6815 3.3168 13.6663 6.9987 13.6663ZM6.9987 12.6663C10.1283 12.6663 12.6654 10.1293 12.6654 6.99967C12.6654 3.87006 10.1283 1.33301 6.9987 1.33301C3.86908 1.33301 1.33203 3.87006 1.33203 6.99967C1.33203 10.1293 3.86908 12.6663 6.9987 12.6663Z" fill="#808080"/>
</svg>
