<svg width="80" height="80" viewBox="0 0 80 80" fill="none" xmlns="http://www.w3.org/2000/svg">
<path d="M71.8619 61.4249C68.7707 65.3633 64.9148 68.6601 60.5197 71.1238C44.0791 80.2781 23.4955 75.6038 12.2822 61.0746C11.0721 59.5057 8.90384 59.0907 7.1839 60.0503C6.77076 60.274 6.60961 60.8185 6.86453 61.2012C17.1226 78.8682 39.9361 85.2379 57.8123 75.3153C63.8336 71.9538 68.8674 67.0264 72.278 61.0069C72.1813 61.1688 72.0201 61.2954 71.8619 61.4249Z" fill="#0D9D59"/>
<path d="M4.72897 56.0798C2.94456 51.4055 2.05383 46.381 2.21205 41.324C2.78634 22.3766 17.378 6.91436 35.6029 4.7391C37.4518 4.51539 38.8201 2.94651 38.8846 1.08915C38.9168 0.512222 38.4392 4.77978e-05 37.8649 4.77978e-05C17.6007 -0.0323308 0.6181 16.3895 0.0145091 36.8734C-0.175944 43.7877 1.51177 50.6373 4.89012 56.6862C4.82566 56.4625 4.79343 56.2711 4.72897 56.0798Z" fill="#DC4536"/>
<path d="M42.9639 0.194256C47.9011 0.930134 52.6829 2.65798 56.9842 5.28359C72.9794 15.0472 79.1589 35.1779 72.3084 52.0795C71.5115 54.0634 72.244 56.3034 74.0606 57.4249C74.3477 57.5839 74.6964 57.4897 74.8576 57.2336C85.2124 39.5019 79.446 16.2953 61.9214 5.53967C55.9939 1.95448 49.2401 0.0353083 42.3574 0.00292969C42.5508 0.0647434 42.7413 0.129499 42.9639 0.194256Z" fill="#F4B405"/>
<path d="M32.8638 23.3687C35.2394 23.3687 37.1651 21.4341 37.1651 19.0476C37.1651 16.6612 35.2394 14.7266 32.8638 14.7266C30.4883 14.7266 28.5625 16.6612 28.5625 19.0476C28.5625 21.4341 30.4883 23.3687 32.8638 23.3687Z" fill="#1F598E"/>
<path d="M46.1822 21.9908C48.5577 21.9908 50.4835 20.0562 50.4835 17.6697C50.4835 15.2832 48.5577 13.3486 46.1822 13.3486C43.8066 13.3486 41.8809 15.2832 41.8809 17.6697C41.8809 20.0562 43.8066 21.9908 46.1822 21.9908Z" fill="#1F598E"/>
<path d="M65.3321 26.8242C65.1417 24.8079 63.3895 23.3361 61.4762 23.5275L24.8359 27.6572C23.8484 27.7544 22.8932 27.9781 21.9673 28.3283C19.4504 29.3527 17.666 31.8488 17.666 34.7628V38.0596C17.666 39.9787 19.0666 41.7095 20.9799 41.9009C23.1774 42.1246 25.0263 40.3967 25.0263 38.2185V37.0676C25.0263 35.9167 25.8877 34.9866 27.0012 34.86L29.4214 34.5715V62.738C29.4214 64.6571 30.822 66.3879 32.7353 66.5792C34.9328 66.803 36.7817 65.0751 36.7817 62.8969V33.7385L42.3898 33.0998V63.0912C42.3898 65.0104 43.7904 66.7411 45.7037 66.9325C47.9012 67.1562 49.7501 65.4283 49.7501 63.2501V34.2183C49.7501 33.0968 50.5793 32.1696 51.6927 32.043L62.238 30.8597C64.1513 30.6655 65.5548 28.8405 65.3321 26.8242Z" fill="#1F598E"/>
</svg>
