<svg width="51" height="50" viewBox="0 0 51 50" fill="none" xmlns="http://www.w3.org/2000/svg">
<path d="M45.4139 38.3908C43.4819 40.8523 41.072 42.9127 38.325 44.4526C28.0497 50.174 15.1849 47.2526 8.17662 38.1718C7.4203 37.1913 6.06515 36.9319 4.99018 37.5316C4.73197 37.6714 4.63125 38.0118 4.79057 38.2509C11.2019 49.2928 25.4603 53.2739 36.6329 47.0723C40.3962 44.9713 43.5424 41.8917 45.674 38.1295C45.6136 38.2307 45.5128 38.3098 45.4139 38.3908Z" fill="#0D9D59"/>
<path d="M3.4556 35.0499C2.34035 32.1285 1.78364 28.9881 1.88253 25.8275C2.24146 13.9854 11.3613 4.32147 22.7518 2.96194C23.9074 2.82212 24.7626 1.84157 24.8029 0.680719C24.823 0.320139 24.5245 2.98736e-05 24.1656 2.98736e-05C11.5004 -0.0202068 0.886313 10.2435 0.509068 23.0459C0.390035 27.3673 1.44485 31.6483 3.55632 35.4289C3.51604 35.289 3.49589 35.1695 3.4556 35.0499Z" fill="#DC4536"/>
<path d="M27.352 0.12144C30.4377 0.581363 33.4264 1.66126 36.1147 3.30227C46.1117 9.40454 49.9739 21.9862 45.6923 32.5497C45.1942 33.7897 45.6521 35.1897 46.7875 35.8906C46.9669 35.99 47.1848 35.9311 47.2856 35.771C53.7573 24.6887 50.1534 10.1846 39.2004 3.46232C35.4958 1.22158 31.2746 0.0220973 26.973 0.00186062C27.0938 0.0404942 27.2129 0.0809663 27.352 0.12144Z" fill="#F4B405"/>
<path d="M21.0395 14.6054C22.5242 14.6054 23.7278 13.3962 23.7278 11.9047C23.7278 10.4131 22.5242 9.20401 21.0395 9.20401C19.5547 9.20401 18.3511 10.4131 18.3511 11.9047C18.3511 13.3962 19.5547 14.6054 21.0395 14.6054Z" fill="#1F598E"/>
<path d="M29.3628 13.7444C30.8475 13.7444 32.0511 12.5352 32.0511 11.0437C32.0511 9.55217 30.8475 8.34304 29.3628 8.34304C27.878 8.34304 26.6744 9.55217 26.6744 11.0437C26.6744 12.5352 27.878 13.7444 29.3628 13.7444Z" fill="#1F598E"/>
<path d="M41.332 16.7651C41.2129 15.505 40.1178 14.5851 38.922 14.7047L16.0218 17.2858C15.4047 17.3465 14.8077 17.4863 14.229 17.7052C12.6559 18.3454 11.5406 19.9055 11.5406 21.7268V23.7873C11.5406 24.9867 12.416 26.0685 13.6118 26.1881C14.9853 26.3279 16.1408 25.248 16.1408 23.8866V23.1673C16.1408 22.448 16.6792 21.8666 17.3751 21.7875L18.8878 21.6072V39.2113C18.8878 40.4107 19.7631 41.4925 20.9589 41.6121C22.3324 41.7519 23.4879 40.672 23.4879 39.3106V21.0866L26.993 20.6874V39.432C26.993 40.6315 27.8684 41.7132 29.0642 41.8328C30.4377 41.9726 31.5932 40.8927 31.5932 39.5314V21.3865C31.5932 20.6855 32.1115 20.106 32.8073 20.0269L39.3981 19.2874C40.594 19.1659 41.4712 18.0253 41.332 16.7651Z" fill="#1F598E"/>
</svg>
