<svg width="34" height="34" viewBox="0 0 34 34" fill="none" xmlns="http://www.w3.org/2000/svg">
<path d="M24.4755 20.7698L22.0381 22.1397C21.7456 22.304 21.4073 22.3683 21.0747 22.3227C20.7421 22.2772 20.4337 22.1243 20.1964 21.8874L12.0612 13.7715C11.8239 13.5347 11.6708 13.2269 11.6251 12.8952C11.5795 12.5635 11.6438 12.226 11.8083 11.9341L13.1814 9.50247C13.4286 9.06483 13.5254 8.5585 13.4569 8.06082C13.3885 7.56315 13.1587 7.1015 12.8026 6.74639L9.14937 3.10185C8.93525 2.88814 8.68103 2.7186 8.40121 2.60294C8.1214 2.48727 7.82149 2.42773 7.5186 2.42773C7.21572 2.42773 6.91581 2.48727 6.63599 2.60294C6.35618 2.7186 6.10196 2.88814 5.88784 3.10185L4.22909 4.7555C3.25911 5.72317 2.64125 6.98657 2.47376 8.34483C2.30627 9.70309 2.59876 11.0782 3.30472 12.2516L4.13701 13.6354C8.3873 20.7023 14.3865 26.5611 21.5591 30.6499L21.7234 30.7441C24.1736 32.1407 27.2009 31.7337 29.1627 29.7777L30.8949 28.0496C31.1091 27.836 31.279 27.5824 31.395 27.3032C31.5109 27.0241 31.5706 26.7249 31.5706 26.4227C31.5706 26.1206 31.5109 25.8213 31.395 25.5422C31.279 25.2631 31.1091 25.0094 30.8949 24.7958L27.2393 21.149C26.8834 20.7932 26.4206 20.5635 25.9214 20.4951C25.4223 20.4266 24.9145 20.5231 24.4755 20.7698Z" fill="#0777E9"/>
</svg>
