<svg width="80" height="80" viewBox="0 0 80 80" fill="none" xmlns="http://www.w3.org/2000/svg">
<path id="Union" fill-rule="evenodd" clip-rule="evenodd" d="M6.74729 2.79044C4.56198 2.79044 2.79044 4.56199 2.79044 6.74729V55.5246C3.15414 55.0243 3.56965 54.5164 4.04337 54.018C6.35397 51.5875 9.98847 49.4523 15.5151 49.4523C17.7407 49.4523 20.4391 49.6939 24.1582 51.1689C27.5038 52.4956 31.6412 54.8055 36.9949 58.7787C43.3739 51.0267 48.3273 46.227 52.3152 43.2698C57.7627 39.2298 61.4456 38.603 64.4536 38.603C69.0769 38.603 72.436 40.6652 74.7995 43.3072C75.7525 44.3723 76.5464 45.5332 77.206 46.6961V6.74729C77.206 4.56199 75.4347 2.79044 73.2492 2.79044H6.74729ZM2.79044 73.2492V62.071L3.192 60.8088L3.193 60.806C3.44119 60.0392 4.21392 57.8889 6.06588 55.9406C7.8838 54.028 10.8012 52.2427 15.5151 52.2427C17.4589 52.2427 19.7973 52.4414 23.1296 53.7629C26.1656 54.9667 30.0591 57.1158 35.235 60.9475C33.5288 63.0786 31.7258 65.4111 29.8181 67.9641L29.8108 67.9736C29.8053 67.9802 29.7988 67.988 29.7914 67.997L29.7779 68.0135C29.7649 68.0294 29.7496 68.048 29.7321 68.069C29.6826 68.1284 29.6157 68.2082 29.5324 68.3062C29.4975 68.3473 29.4597 68.3917 29.4191 68.439C29.145 68.7588 28.7454 69.2153 28.2482 69.755C27.2514 70.8377 25.8769 72.2396 24.3494 73.5422C22.8085 74.8565 21.1789 76.0123 19.6709 76.6642C19.1759 76.8779 18.6323 77.0652 18.0966 77.206H6.74729C4.56198 77.206 2.79044 75.4347 2.79044 73.2492ZM73.2492 79.9965H17.6511C17.5127 80.0011 17.3744 80.0012 17.2362 79.9965H6.74729C3.02088 79.9965 0 76.9755 0 73.2492V6.74729C0 3.02088 3.02088 0 6.74729 0H73.2492C76.9755 0 79.9965 3.02088 79.9965 6.74729V73.2492C79.9965 76.9755 76.9755 79.9965 73.2492 79.9965ZM26.1604 75.6657C25.5423 76.1927 24.8885 76.7156 24.2124 77.206H73.2492C75.4347 77.206 77.206 75.4347 77.206 73.2492V55.0487L76.6267 52.2779C75.8939 50.0863 74.6706 47.3477 72.7201 45.1678C70.7779 42.9974 68.1348 41.3935 64.4536 41.3935C62.0594 41.3935 58.9559 41.8188 53.9772 45.5111C48.9259 49.257 41.9883 56.3363 32.0359 69.6585L32.0192 69.6808L32.0019 69.702L30.9181 68.8236C32.0019 69.702 32.0013 69.7026 32.0013 69.7026L31.9985 69.7059L31.9919 69.7143L31.9678 69.7438L31.9479 69.768C31.929 69.791 31.9056 69.8195 31.8774 69.8532C31.7987 69.9475 31.6849 70.0837 31.5381 70.2545C31.2457 70.5961 30.8238 71.0777 30.3008 71.6453C29.2583 72.7776 27.8012 74.266 26.1604 75.6657ZM47.5226 22.5732C47.5226 28.0412 43.0899 32.4738 37.6221 32.4738C32.1542 32.4738 27.7215 28.0412 27.7215 22.5732C27.7215 17.1053 32.1542 12.6727 37.6221 12.6727C43.0899 12.6727 47.5226 17.1053 47.5226 22.5732Z" fill="#404953"/>
</svg>
