<svg width="24" height="25" viewBox="0 0 24 25" fill="none" xmlns="http://www.w3.org/2000/svg">
<g id="Interface">
<path id="Vector" d="M11.252 20.75C11.252 21.1642 11.5878 21.5 12.002 21.5C12.4162 21.5 12.752 21.1642 12.752 20.75V13.2499H20.2519C20.6661 13.2499 21.0019 12.9141 21.0019 12.4999C21.0019 12.0857 20.6661 11.7499 20.2519 11.7499H12.752V4.25C12.752 3.83579 12.4162 3.5 12.002 3.5C11.5878 3.5 11.252 3.83578 11.252 4.25V11.7499H3.75195C3.33774 11.7499 3.00195 12.0857 3.00195 12.4999C3.00195 12.9141 3.33774 13.2499 3.75195 13.2499H11.252V20.75Z" fill="white"/>
</g>
</svg>
