<svg width="49" height="49" viewBox="0 0 49 49" fill="none" xmlns="http://www.w3.org/2000/svg">
<g id="icon / jam-icons / outline &#38; logos / screwdriver">
<path id="Vector" d="M42.215 16.6303L30.7247 28.1211C29.8541 28.9915 28.6735 29.4804 27.4425 29.4804C26.2114 29.4804 25.0308 28.9915 24.1602 28.1211L11.0288 41.2531C11.4639 41.6885 11.7084 42.2788 11.7084 42.8944C11.7084 43.5099 11.4639 44.1003 11.0288 44.5356L7.74882 47.8203C7.31352 48.2555 6.7232 48.5 6.10769 48.5C5.49217 48.5 4.90185 48.2555 4.46655 47.8203L1.17964 44.5356C0.744465 44.1003 0.5 43.5099 0.5 42.8944C0.5 42.2788 0.744465 41.6885 1.17964 41.2531L4.46191 37.9707C4.89721 37.5355 5.48753 37.291 6.10304 37.291C6.71856 37.291 7.30888 37.5355 7.74418 37.9707L20.8779 24.8387C20.0076 23.968 19.5186 22.7873 19.5186 21.5562C19.5186 20.3251 20.0076 19.1445 20.8779 18.2738L32.3682 6.78298L42.215 16.6303ZM45.4973 13.3478L35.6505 3.50055L37.2916 1.85934C38.1622 0.988954 39.3428 0.5 40.5739 0.5C41.8049 0.5 42.9855 0.988954 43.8561 1.85934L47.1407 5.14177C48.0111 6.01241 48.5 7.1931 48.5 8.4242C48.5 9.65529 48.0111 10.836 47.1407 11.7066L45.4996 13.3478H45.4973Z" fill="#FFFEFE"/>
</g>
</svg>
