<svg width="24" height="24" viewBox="0 0 24 24" fill="none" xmlns="http://www.w3.org/2000/svg">
<g id="Design">
<g id="vector">
<path fill-rule="evenodd" clip-rule="evenodd" d="M13.0607 5.93912C12.4749 6.52491 12.4749 7.47465 13.0607 8.06044L15.9393 10.9391C16.5251 11.5249 17.4749 11.5249 18.0607 10.9391L20.9394 8.06044C21.5251 7.47465 21.5251 6.52491 20.9394 5.93912L18.0607 3.06043C17.4749 2.47465 16.5251 2.47465 15.9393 3.06043L13.0607 5.93912ZM17 4.12109L14.1213 6.99978L17 9.87847L19.8787 6.99978L17 4.12109Z" fill="#1F598E"/>
<path fill-rule="evenodd" clip-rule="evenodd" d="M3 4.99979C3 3.89522 3.89543 2.99979 5 2.99979H9C10.1046 2.99979 11 3.89522 11 4.99979V8.99979C11 10.1044 10.1046 10.9998 9 10.9998H5C3.89543 10.9998 3 10.1044 3 8.99979V4.99979ZM4.5 4.99979C4.5 4.72364 4.72386 4.49979 5 4.49979H9C9.27614 4.49979 9.5 4.72364 9.5 4.99979V8.99979C9.5 9.27593 9.27614 9.49979 9 9.49979H5C4.72386 9.49979 4.5 9.27593 4.5 8.99979V4.99979Z" fill="#1F598E"/>
<path fill-rule="evenodd" clip-rule="evenodd" d="M5 12.9998C3.89543 12.9998 3 13.8952 3 14.9998V18.9998C3 20.1044 3.89543 20.9998 5 20.9998H9C10.1046 20.9998 11 20.1044 11 18.9998V14.9998C11 13.8952 10.1046 12.9998 9 12.9998H5ZM9.5 14.9998C9.5 14.7236 9.27614 14.4998 9 14.4998H5C4.72386 14.4998 4.5 14.7236 4.5 14.9998V18.9998C4.5 19.2759 4.72386 19.4998 5 19.4998H9C9.27614 19.4998 9.5 19.2759 9.5 18.9998V14.9998Z" fill="#1F598E"/>
<path fill-rule="evenodd" clip-rule="evenodd" d="M15 12.9998C13.8954 12.9998 13 13.8952 13 14.9998V18.9998C13 20.1044 13.8954 20.9998 15 20.9998H19C20.1046 20.9998 21 20.1044 21 18.9998V14.9998C21 13.8952 20.1046 12.9998 19 12.9998H15ZM19.5 14.9998C19.5 14.7236 19.2761 14.4998 19 14.4998H15C14.7239 14.4998 14.5 14.7236 14.5 14.9998V18.9998C14.5 19.2759 14.7239 19.4998 15 19.4998H19C19.2761 19.4998 19.5 19.2759 19.5 18.9998V14.9998Z" fill="#1F598E"/>
</g>
</g>
</svg>
