<svg width="4" height="16" viewBox="0 0 4 16" fill="none" xmlns="http://www.w3.org/2000/svg">
<path d="M2 0C1.1716 0 0.5 0.67157 0.5 1.5C0.5 2.32843 1.1716 3 2 3C2.8284 3 3.5 2.32843 3.5 1.5C3.5 0.67157 2.8284 0 2 0Z" fill="#404953"/>
<path d="M0.5 8C0.5 7.1716 1.1716 6.5 2 6.5C2.8284 6.5 3.5 7.1716 3.5 8C3.5 8.8284 2.8284 9.5 2 9.5C1.1716 9.5 0.5 8.8284 0.5 8Z" fill="#404953"/>
<path d="M0.5 14.5C0.5 13.6716 1.1716 13 2 13C2.8284 13 3.5 13.6716 3.5 14.5C3.5 15.3284 2.8284 16 2 16C1.1716 16 0.5 15.3284 0.5 14.5Z" fill="#404953"/>
</svg>
