<svg width="48" height="48" viewBox="0 0 48 48" fill="none" xmlns="http://www.w3.org/2000/svg">
<g id="icon / jam-icons / outline &#38; logos / totem">
<path id="Vector" d="M19.9997 40H27.9997V10C27.9997 9.46957 27.789 8.96086 27.4139 8.58579C27.0389 8.21071 26.5302 8 25.9997 8H21.9997C21.4693 8 20.9606 8.21071 20.5855 8.58579C20.2104 8.96086 19.9997 9.46957 19.9997 10V40ZM31.9997 40.536C32.6078 40.8871 33.1127 41.392 33.4638 42.0001C33.8149 42.6081 33.9997 43.2979 33.9997 44H13.9997C13.9997 43.2979 14.1846 42.6081 14.5357 42.0001C14.8867 41.392 15.3917 40.8871 15.9997 40.536V10C15.9997 8.4087 16.6319 6.88258 17.7571 5.75736C18.8823 4.63214 20.4084 4 21.9997 4H25.9997C27.591 4 29.1171 4.63214 30.2424 5.75736C31.3676 6.88258 31.9997 8.4087 31.9997 10V40.536ZM21.9997 22H25.9997V26H21.9997V22ZM23.9997 14C23.4693 14 22.9606 13.7893 22.5855 13.4142C22.2104 13.0391 21.9997 12.5304 21.9997 12C21.9997 11.4696 22.2104 10.9609 22.5855 10.5858C22.9606 10.2107 23.4693 10 23.9997 10C24.5302 10 25.0389 10.2107 25.4139 10.5858C25.789 10.9609 25.9997 11.4696 25.9997 12C25.9997 12.5304 25.789 13.0391 25.4139 13.4142C25.0389 13.7893 24.5302 14 23.9997 14ZM6.57173 16H41.4377C41.7417 16 42.0417 16.0693 42.3149 16.2027C42.5882 16.336 42.8274 16.5299 43.0144 16.7696C43.2014 17.0092 43.3314 17.2884 43.3943 17.5858C43.4573 17.8832 43.4516 18.1911 43.3777 18.486L40.7577 28.97C40.5414 29.8354 40.0421 30.6036 39.3391 31.1526C38.6361 31.7016 37.7697 31.9999 36.8777 32H11.1757C10.2862 32.0003 9.42199 31.7041 8.71966 31.1583C8.01734 30.6124 7.51699 29.8481 7.29773 28.986L4.63373 18.492C4.55882 18.1969 4.55229 17.8885 4.61464 17.5905C4.67699 17.2924 4.80657 17.0126 4.99349 16.7722C5.18042 16.5318 5.41976 16.3373 5.69327 16.2035C5.96678 16.0697 6.26723 16.0001 6.57173 16ZM9.14373 20L11.1777 28H36.8777L38.8777 20H9.14373Z" fill="white"/>
</g>
</svg>
