<svg width="49" height="49" viewBox="0 0 49 49" fill="none" xmlns="http://www.w3.org/2000/svg">
<g id="icon / jam-icons / outline &#38; logos / universe">
<path id="Vector" d="M7.88769 41.112C4.06769 37.288 8.40369 26.752 17.5777 17.578C26.7517 8.40399 37.2877 4.06599 41.1117 7.88799C44.9317 11.712 40.5957 22.248 31.4217 31.422C22.2477 40.596 11.7117 44.934 7.88769 41.112ZM10.6597 38.34C12.2897 39.972 20.8637 36.44 28.6537 28.65C36.4437 20.86 39.9737 12.286 38.3437 10.656C36.7137 9.02399 28.1397 12.556 20.3497 20.346C12.5597 28.136 9.02969 36.71 10.6597 38.34ZM17.5797 31.42C8.40369 22.248 4.06569 11.712 7.88769 7.88799C11.7117 4.06799 22.2477 8.40399 31.4217 17.578C40.5957 26.752 44.9337 37.288 41.1117 41.112C37.2877 44.932 26.7517 40.596 17.5777 31.422L17.5797 31.42ZM20.3497 28.65C28.1397 36.44 36.7137 39.97 38.3437 38.34C39.9757 36.71 36.4437 28.136 28.6537 20.346C20.8637 12.556 12.2897 9.02599 10.6597 10.656C9.02769 12.286 12.5597 20.86 20.3497 28.65ZM24.4997 28.5C23.4388 28.5 22.4214 28.0786 21.6713 27.3284C20.9211 26.5783 20.4997 25.5609 20.4997 24.5C20.4997 23.4391 20.9211 22.4217 21.6713 21.6716C22.4214 20.9214 23.4388 20.5 24.4997 20.5C25.5606 20.5 26.578 20.9214 27.3281 21.6716C28.0783 22.4217 28.4997 23.4391 28.4997 24.5C28.4997 25.5609 28.0783 26.5783 27.3281 27.3284C26.578 28.0786 25.5606 28.5 24.4997 28.5Z" fill="white"/>
</g>
</svg>
