<svg width="80" height="80" viewBox="0 0 80 80" fill="none" xmlns="http://www.w3.org/2000/svg">
<path id="Union" fill-rule="evenodd" clip-rule="evenodd" d="M6.74759 2.79057C4.56203 2.79057 2.79057 4.56219 2.79057 6.74759V17.8932H27.6621L19.6727 2.79057H6.74759ZM2.79057 73.2524V20.6837H77.2094V73.2524C77.2094 75.438 75.438 77.2094 73.2524 77.2094H6.74759C4.56203 77.2094 2.79057 75.438 2.79057 73.2524ZM77.2094 6.74759V17.8932H58.6161L50.6267 2.79057H73.2524C75.438 2.79057 77.2094 4.56219 77.2094 6.74759ZM22.8298 2.79057H47.4701L55.4595 17.8932H30.8192L22.8298 2.79057ZM0 6.74759C0 3.02101 3.02107 0 6.74759 0H73.2524C76.9789 0 80 3.02101 80 6.74759V73.2524C80 76.9789 76.9789 80 73.2524 80H6.74759C3.02107 80 0 76.9789 0 73.2524V6.74759ZM33.9668 35.9651L53.1771 47.0549V47.0493C54.3826 47.747 54.3826 49.4827 53.1771 50.1804L33.9668 61.2701C32.7613 61.9677 31.2544 61.097 31.2544 59.7074V37.5278C31.2544 36.1381 32.7613 35.2674 33.9668 35.9651Z" fill="#404953"/>
</svg>
